<?xml version="1.0" encoding="utf-8"?>
<!-- Generator: Adobe Illustrator 16.0.0, SVG Export Plug-In . SVG Version: 6.00 Build 0)  -->
<!DOCTYPE svg PUBLIC "-//W3C//DTD SVG 1.1//EN" "http://www.w3.org/Graphics/SVG/1.1/DTD/svg11.dtd">
<svg version="1.1" xmlns="http://www.w3.org/2000/svg" xmlns:xlink="http://www.w3.org/1999/xlink" x="0px" y="0px" width="1920px"
	 height="1080px" viewBox="0 0 1920 1080" enable-background="new 0 0 1920 1080" xml:space="preserve">
<g id="Layer_14">
	<polygon fill="#36A499" points="620.639,107.753 645.5,165 676.461,282.776 678.625,374.915 648.513,395.999 646.075,439.766 
		611.728,440.187 619.353,384.432 639.924,355.117 632.19,320.955 642.887,258.083 623.328,164.792 567,123 574.72,90.478 
		605,93.717 	"/>
</g>
<g id="Layer_11">
	<polygon fill="#163A3E" points="538.663,140.954 527.692,161.261 514.755,174.937 524.626,281.14 510.501,336.261 614.452,390.588 
		590.977,251.823 566.688,212.958 574.399,93.717 557.365,109.104 	"/>
	<polygon fill="#91854D" points="562.708,319.277 568.011,350.46 651.438,422.546 684.638,419.182 645.111,202.793 614.736,113.826 
		603.645,61.543 580.17,21.758 574.119,98.047 556.64,167.562 558.486,273.847 	"/>
</g>
<g id="Layer_10">
	<path fill="#F15A29" d="M682.125,62.786"/>
	<polygon fill="#586C61" points="609.884,152.135 598.416,218.819 609.544,284.245 601.589,325.364 643.519,396.341 
		671.462,488.806 701.927,327.816 675.176,179.141 655.37,143.701 614.736,113.826 	"/>
	<path fill="#F15A29" d="M1277.945,51.167"/>
	<polygon fill="#163A3E" points="1318.28,100.088 1310.088,110.255 1313.49,141.262 1305.071,148.042 1310.723,185.948 
		1313.045,219.641 1335.969,167.14 1334.127,127.602 1343.019,77.492 1331.961,84.297 	"/>
	<polygon fill="#163A3E" points="524.544,81.351 509.108,90.458 514.974,112.531 520.068,115.31 544.146,93.391 528.711,77.492 	"/>
	<polygon fill="#91854D" points="1087.427,54.229 1084.367,67.534 1099.641,75.864 1103.847,74.506 1104.358,49.708 1087.48,49.902 
			"/>
	<polygon fill="#91854D" points="691.487,363.958 681.79,373.568 690.247,388.772 694.527,389.873 708.214,369.187 693.845,360.33 	
		"/>
	<polygon fill="#FCBF4C" points="1734.108,614.42 1724.411,624.03 1732.867,639.234 1737.148,640.334 1750.835,619.648 
		1736.467,610.792 	"/>
	<polygon fill="#91854D" points="980.647,971.367 968.366,959.181 949.188,970.057 947.841,975.494 974.198,992.618 985.27,974.317 
			"/>
	<polygon fill="#91854D" points="905.111,90.617 895.414,100.227 903.87,115.431 908.151,116.531 921.838,95.845 907.47,86.988 	"/>
	<polygon fill="#163A3E" points="562.352,909.339 573.226,929.716 576.64,952.11 583.63,964.581 577.658,992.081 578.527,1025.043 
		551.378,976.145 549.504,937.545 546.708,911.486 556.669,897.445 	"/>
	<polygon fill="#B69C57" points="1058.638,917.934 1031.553,926.145 999.643,970.271 1020.182,963.676 991.304,964.021 
		944.298,1004.07 1010.204,985.283 1045.299,953.494 1070.317,933.36 1073.87,912.565 	"/>
	<polygon fill="#FCBF4C" points="379.163,855.683 396.289,838.709 381.354,811.858 373.793,809.916 349.622,846.448 374.997,862.09 
			"/>
	<polygon fill="#B69C57" points="359.806,786.016 351.338,769.61 328.297,774.357 325.143,779.435 346.281,805.475 363.53,790.529 	
		"/>
	<polygon fill="#FCBF4C" points="1059.393,926.477 1040.897,944.806 1057.025,973.803 1065.19,975.899 1091.294,936.448 
		1063.891,919.558 	"/>
	<polygon fill="#586C61" points="980.969,914.355 969.106,926.111 979.451,944.711 984.688,946.057 1001.432,920.751 
		983.854,909.917 	"/>
</g>
<g id="Layer_1">
	<polyline fill="#91854D" points="793.559,331.505 824.001,534.853 1137.356,906.063 1225.995,878.66 1613.356,757.784 
		1687.356,754.593 1717.419,731.876 1717.419,496.331 	"/>
	<polyline fill="#B69C57" points="821.168,400.922 1205.529,429.387 1205.529,723.063 824.001,534.853 	"/>
	<polyline fill="#FCBF4C" points="1271.937,555.229 1137.356,906.063 1362.695,836.003 1349.933,563.352 	"/>
	<polyline fill="#B69C57" points="1483.426,596.137 1613.356,757.784 1640.918,574.746 	"/>
	<g id="XMLID_10_">
		<g>
			<polygon fill="#FCBF4C" points="1483.427,596.133 1613.356,757.782 1362.696,836.003 			"/>
		</g>
		<g>
		</g>
	</g>
	<polyline fill="#FCBF4C" points="1684.574,534.729 1687.356,754.593 1717.419,731.752 1717.419,496.533 	"/>
	<polygon fill="#538B73" points="1498.797,615.255 1473.802,615.255 1467.856,596.988 1483.426,596.137 	"/>
	<polygon fill="#586C61" points="1473.802,615.255 1351.006,586.287 1346.194,562.529 1483.426,596.137 	"/>
	<polygon fill="#538B73" points="1637.697,596.133 1498.797,615.255 1483.428,596.242 1640.918,574.746 	"/>
	<polygon fill="#586C61" points="1684.856,562.188 1637.697,596.133 1641.667,569.832 1684.438,537.688 	"/>
	<polygon fill="#538B73" points="1717.419,521.373 1684.856,562.188 1684.438,537.688 1717.419,496.331 	"/>
	<g id="XMLID_6_">
		<g>
			<polygon fill="#91854D" points="824.001,396.713 824.001,534.853 803.461,524.023 793.461,331.183 			"/>
		</g>
		<g>
		</g>
	</g>
	<polygon fill="#163A3E" points="823.995,424.902 794.868,358.046 793.461,331.179 829.854,414.034 	"/>
	<polygon fill="#586C61" points="949.255,452.444 823.995,424.902 823.981,400.883 954.292,429.536 	"/>
	<polygon fill="#586C61" points="1101.75,488.777 948.415,452.26 954.292,429.536 1095.949,462.531 	"/>
	<polygon fill="#586C61" points="1208.492,521.373 1089.47,485.073 1095.949,462.531 1210.5,495 	"/>
	<polygon fill="#586C61" points="1263.145,578.437 1205.529,520.469 1205.529,495.917 1273.667,550.833 	"/>
	<polygon fill="#538B73" points="1351.006,586.287 1263.145,578.437 1271.937,555.229 1349.933,563.352 	"/>
	<polygon fill="#A8CD8D" points="823.981,400.883 793.461,331.179 832.459,269.526 941.953,262.312 1220.539,262.312 
		1444.428,295.981 1690.42,386.837 1717.419,496.332 1684.416,539.83 1640.918,574.746 1483.428,596.242 1349.938,563.446 
		1271.937,555.229 1205.529,495.592 1102.429,464.327 954.292,429.536 	"/>
</g>
<g id="Layer_2">
	<g>
		<path fill="#FCBF4C" d="M297.943,500.107l69.225,287.452l198.013,123.06l20.237,73.012l87.785,7.502l137.408-52.961
			c0,0,154.85-65.786,158.824-64.734s186.656,41.615,186.656,41.615l61.279-109.875l44.598-144.817L1206.8,545.515l-96.566,59.724
			L297.943,500.107z"/>
		<g id="XMLID_17_">
			<g>
				<polygon fill="#B69C57" points="441.688,578.596 489.357,696.393 367.118,787.452 317.027,580.264 				"/>
			</g>
			<g>
			</g>
		</g>
		<g id="XMLID_16_">
			<g>
				<polygon fill="#B69C57" points="1240.223,730.999 1216.664,806.71 1216.643,806.734 1156.109,915.061 1125.476,774.001 				"/>
			</g>
			<g>
			</g>
		</g>
		<g id="XMLID_15_">
			<g>
				<polygon fill="#B69C57" points="565.05,910.574 447.825,837.661 441.189,732.273 522.583,751.206 				"/>
			</g>
			<g>
			</g>
		</g>
		<line fill="none" x1="576.731" y1="982.763" x2="735.559" y2="995.827"/>
		<line fill="none" x1="602.092" y1="707.825" x2="688.377" y2="1052.428"/>
		<polyline fill="#538B73" points="619.653,773.498 620.034,749.709 947.841,754.95 940.858,778.664 		"/>
		<polyline fill="#A7A9AC" points="594.924,710.471 595.305,686.683 923.112,691.923 922.731,715.71 		"/>
		<polyline fill="#538B73" points="940.858,778.664 940.433,754.876 1130.661,751.479 1131.087,775.268 		"/>
		<polyline fill="#538B73" points="1073.94,773.64 1083.442,751.827 1133.079,773.096 1130.442,797.653 		"/>
		<polyline fill="#A7A9AC" points="766.067,713.551 765.642,689.761 955.872,686.369 956.296,710.154 		"/>
		<polyline fill="#586C61" points="1130.442,797.653 1130.874,772.218 1240.38,731.438 1231.569,759.016 		"/>
		<polyline fill="#163A3E" points="321.123,595.769 297.943,500.107 433.183,652.275 413.019,678.405 		"/>
		<polyline fill="#586C61" points="496.196,698.924 441.201,732.182 433.694,722.854 366.235,636.371 367.041,574.052 		"/>
		<path fill="#FFFFFF" stroke="#000000" stroke-miterlimit="10" d="M1271.937,678.038"/>
		<path fill="none" stroke="#000000" stroke-miterlimit="10" d="M1252.624,754.518"/>
		<polyline fill="#586C61" points="441.201,732.182 440.021,708.751 621.784,750.252 619.653,773.498 		"/>
	</g>
	<polygon fill="#A8CD8D" points="366.545,612.326 440.021,708.751 621.784,750.252 882.897,753.948 947.841,754.95 
		1085.351,752.932 1130.874,772.218 1240.38,731.438 1261.968,660.359 1206.8,545.515 830.186,463.799 730.333,429.423 
		597.559,422.813 474.806,433.549 371.55,459.786 297.943,500.107 326.701,584.304 	"/>
	<line fill="none" x1="356.639" y1="841.373" x2="303.879" y2="621.868"/>
	<g id="XMLID_14_">
		<g>
			<polygon fill="#91854D" points="366.377,636.345 367.128,787.475 320.817,595.987 366.217,636.354 			"/>
		</g>
		<g>
		</g>
	</g>
	<g id="XMLID_13_">
		<g>
			<polygon fill="#91854D" points="619.633,773.489 584.609,983.984 522.4,751.033 			"/>
		</g>
		<g>
		</g>
	</g>
</g>
<g id="Layer_12">
	<polygon fill="#FCBF4C" points="800.337,320.309 811.601,302.501 816.72,295.028 868.284,300.313 932.146,275.521 917.217,317.167 
		892.702,352.722 849.641,356.416 805.592,329.688 	"/>
	<polygon fill="#B69C57" points="822.735,284.899 819.212,290.637 811.601,302.501 868.284,311.005 932.146,275.521 946.2,239.215 
		967.533,222.271 991.704,188.612 946.2,212.304 883.686,249.546 859.716,260.555 	"/>
	<line fill="none" x1="1076.703" y1="362.508" x2="1188.08" y2="394.59"/>
	<polygon fill="#B69C57" points="1076.703,362.508 1188.616,394.744 1167.67,322.796 1139.009,288.287 1101.319,305.843 	"/>
	<path fill="#0C8C44" d="M1377.2,399.909"/>
	<polygon fill="#91854D" points="1464.846,294.975 1525.856,326.056 1550.226,335.057 1520.734,376.686 1377.493,399.909 
		1430.882,319.942 1405.712,310.359 	"/>
	<polygon fill="#91854D" points="883.686,249.546 875.439,200.824 822.735,284.899 859.716,260.555 	"/>
	<polygon fill="#91854D" points="905.987,163.933 920.953,139.97 946.2,92.678 957.95,121.705 946.2,141.4 970.245,199.903 
		947.62,211.354 905.63,239.468 883.686,249.546 892.273,204.923 	"/>
	<polygon fill="#586C61" points="1139.009,288.287 1079.024,310.266 1069.271,312.201 1071.349,293.151 1065.159,261.276 
		1092.965,222.311 1058.361,230.997 1100.38,164.881 1100.876,148.435 1099.983,131.128 1101.61,124.124 1040.917,156.914 
		1012.861,161.329 991.704,188.612 967.533,222.271 946.2,239.215 917.217,317.167 892.702,352.722 976.447,352.722 
		1076.703,362.508 1101.319,305.843 	"/>
	<polygon fill="#586C61" points="1301.731,127.277 1321.681,178.354 1338.514,197.902 1420.461,264.983 1464.846,294.975 
		1405.712,310.359 1430.882,319.942 1377.493,399.909 1188.616,394.744 1167.67,322.796 1183.81,306.077 1214.446,238.414 
		1249.614,213.697 1264.128,169.825 1249.614,139.547 1260.585,84.396 	"/>
	<polygon fill="#163A3E" points="875.439,200.824 892.271,204.925 883.686,249.546 	"/>
	<polygon fill="#163A3E" points="946.2,141.4 970.245,199.903 991.704,188.612 1012.861,161.329 1040.917,156.914 1045.001,154.707 
		993.271,127.361 967.102,108.078 946.203,92.678 	"/>
	<polygon fill="#163A3E" points="1101.609,124.124 1099.983,131.128 1100.38,164.881 1058.361,230.997 1092.965,222.311 
		1065.159,261.276 1071.349,293.151 1069.271,312.201 1079.024,310.266 1139.009,288.287 1167.67,322.796 1183.81,306.077 
		1214.446,238.414 1249.614,213.697 1264.128,169.825 1249.614,139.547 1260.585,84.396 1188.187,167.96 1142.757,156.914 	"/>
</g>
<g id="Layer_13">
	<polygon fill="#41BEB2" points="557.365,109.104 557.365,164.678 568.932,247 568.011,350.46 594.924,373.715 597.559,422.813 
		628,424.902 622.813,361.291 601.589,325.364 609.544,284.245 598.416,218.819 609.884,152.135 614.736,113.826 572.012,130.64 
		568.932,118.677 574.119,98.047 	"/>
	<polyline fill="#41BEB2" points="627.461,424.736 649.632,445.334 663.461,516.334 439.482,708.585 439.482,708.585 
		402.433,1300.552 384.855,636.354 556.101,537.834 627.461,499.941 624.461,452.278 597.02,422.647 	"/>
	<polygon fill="#586C61" points="652.25,949.695 654.259,961.868 658.417,971.032 634.938,1022.988 632.48,1053.304 
		570.487,1062.663 606.509,996.62 625.55,981.207 642.413,919.601 648.343,930.343 	"/>
	<polygon fill="#91854D" points="631.407,1024.834 614.452,1041.636 629.237,1068.221 636.723,1070.145 660.654,1033.975 
		635.531,1018.489 	"/>
</g>
<g id="Layer_16">
	<polygon fill="#89A975" points="388.811,513.815 360.08,548.082 352.982,548.082 355.764,510.38 355.764,470.248 371.55,459.786 
		474.806,433.549 585.75,424 587.394,471.712 582.25,471.712 576.807,479.208 571.957,479.208 570.727,517.05 565.25,517.05 
		557.785,526.213 542,497.265 536.756,504.652 523.813,513.815 517.885,513.815 515.207,517.05 510.501,517.05 502.265,526.213 
		496.335,526.213 497.115,517.05 482.24,517.05 474.319,551.954 469.983,548.522 458.825,562.924 451.727,562.924 452.078,551.53 
		441.708,526.143 433.497,536.145 425.667,537.112 418.157,548.082 411.059,548.082 407.853,551.954 402.433,549.81 392.36,562.924 
		388.043,551.471 368.387,551.954 	"/>
</g>
<g id="Layer_17">
	<path fill="#89A975" d="M373.159,521.909"/>
	<polyline fill="#163A3E" points="373.417,521.909 377.446,458.288 372.557,459.53 373.417,521.909 	"/>
	<polyline fill="#163A3E" points="441.896,488.597 444.287,441.304 440.953,442.151 441.896,488.597 	"/>
	<path fill="#163A3E" d="M527.462,491.932"/>
</g>
<g id="Layer_15">
	<rect x="571.957" y="464.217" fill="#91854D" width="4.85" height="14.991"/>
	<polygon fill="#586C61" points="560.427,471.712 573.91,386.824 587.394,471.712 	"/>
	<polygon fill="#163A3E" points="560.427,471.712 560.427,450.368 587.394,471.712 	"/>
	<rect x="546.336" y="450.792" fill="#91854D" width="4.85" height="14.991"/>
	<polygon fill="#586C61" points="534.806,458.288 548.289,373.399 561,458.288 	"/>
	<polygon fill="#163A3E" points="561,458.288 534.806,458.288 545.127,393.307 	"/>
	<polygon fill="#163A3E" points="534.806,458.288 534.806,436.943 561.772,458.288 	"/>
	<g>
		<polygon fill="#FCBF4C" points="515.439,465.514 508.145,465.514 509.726,329.448 515.439,329.448 		"/>
		<polygon fill="#FCBF4C" points="509.268,465.514 516.938,465.514 515.356,329.448 509.268,329.448 		"/>
		<g id="XMLID_5_">
			<g>
				<polygon fill="#91854D" points="509.291,332.471 515.414,332.957 515.421,336.78 509.291,336.303 				"/>
			</g>
			<g>
			</g>
		</g>
		<path fill="#B69C57" d="M500.843,324.408c-0.102,0.225-0.258,0.346-0.378,0.666c-0.004,0.005-0.01,0.01-0.013,0.016
			c-0.031,0.068-0.058,0.175-0.079,0.309c-0.05,0.244-0.083,0.567-0.085,1.022c-0.016,0.456-0.021,0.99-0.017,1.555
			c-0.004,0.566,0,1.1,0.017,1.556c0.002,0.454,0.036,0.779,0.085,1.022c0.021,0.133,0.048,0.24,0.079,0.309
			c0.002,0.005,0.008,0.011,0.013,0.017c0.121,0.318,0.277,0.44,0.378,0.664c0.412,0.904,17.18,1.827,17.18,1.827v-10.789
			C518.023,322.582,501.254,323.504,500.843,324.408z"/>
		<path fill="#FCBF4C" d="M528.698,328.875c0,2.482-2.012,4.495-4.495,4.495h-6.648c-2.482,0-4.495-2.013-4.495-4.495v-1.799
			c0-2.482,2.012-4.495,4.495-4.495h6.648c2.482,0,4.495,2.012,4.495,4.495V328.875z"/>
		<g>
			<g>
				<defs>
					<rect id="SVGID_1_" x="393.807" y="167.479" width="239.526" height="239.526"/>
				</defs>
				<clipPath id="SVGID_2_">
					<use xlink:href="#SVGID_1_"  overflow="visible"/>
				</clipPath>
				<g clip-path="url(#SVGID_2_)">
					<defs>
						<rect id="SVGID_3_" x="393.807" y="167.479" width="239.526" height="239.526"/>
					</defs>
					<clipPath id="SVGID_4_">
						<use xlink:href="#SVGID_3_"  overflow="visible"/>
					</clipPath>
					<path clip-path="url(#SVGID_4_)" fill="#DAB361" d="M523.387,328.071c-0.139-0.475-0.216-0.978-0.216-1.498
						c0-2.326,1.483-4.301,3.554-5.045l-4.028-84.032l-4.039,84.283c1.627,0.921,2.728,2.666,2.728,4.668
						c0,0.566-0.088,1.112-0.251,1.624H523.387z"/>
					<path clip-path="url(#SVGID_4_)" fill="#DAB361" d="M521.954,326.775c-0.342,0.357-0.739,0.676-1.189,0.936
						c-2.014,1.163-4.467,0.865-6.146-0.556l-70.761,45.504l75.012-38.643c-0.017-1.87,0.944-3.696,2.678-4.697
						c0.491-0.283,1.008-0.479,1.532-0.594L521.954,326.775z"/>
					<path clip-path="url(#SVGID_4_)" fill="#DAB361" d="M522.949,326.775c0.343,0.357,0.739,0.676,1.189,0.936
						c2.015,1.163,4.467,0.865,6.147-0.556l70.76,45.504l-75.011-38.643c0.017-1.87-0.944-3.696-2.679-4.697
						c-0.491-0.283-1.008-0.479-1.532-0.594L522.949,326.775z"/>
				</g>
			</g>
		</g>
		<g>
			<g>
				<defs>
					<rect id="SVGID_5_" x="402.43" y="208.21" width="239.526" height="239.526"/>
				</defs>
				<clipPath id="SVGID_6_">
					<use xlink:href="#SVGID_5_"  overflow="visible"/>
				</clipPath>
				<g clip-path="url(#SVGID_6_)">
					<defs>
						<rect id="SVGID_7_" x="402.43" y="208.21" width="239.526" height="239.526"/>
					</defs>
					<clipPath id="SVGID_8_">
						<use xlink:href="#SVGID_7_"  overflow="visible"/>
					</clipPath>
					<path clip-path="url(#SVGID_8_)" fill="#B69C57" d="M527.209,327.775c0,2.585-2.096,4.682-4.682,4.682
						c-2.585,0-4.682-2.097-4.682-4.682c0-2.585,2.097-4.682,4.682-4.682C525.114,323.093,527.209,325.19,527.209,327.775"/>
					<path clip-path="url(#SVGID_8_)" fill="#FCBF4C" d="M527.303,327.686c0,2.252-2.079,4.75-4.332,4.75s-3.824-2.497-3.824-4.75
						c0-2.253,1.825-4.312,4.078-4.312S527.303,325.433,527.303,327.686"/>
				</g>
			</g>
		</g>
	</g>
	<rect x="469.372" y="495.489" fill="#91854D" width="5.929" height="18.326"/>
	<g>
		<polygon fill="#FCBF4C" points="440.29,488.597 432.47,488.597 434.165,342.737 440.29,342.737 		"/>
		<polygon fill="#FCBF4C" points="433.674,488.597 441.896,488.597 440.201,342.737 433.674,342.737 		"/>
		<g id="XMLID_4_">
			<g>
				<polygon fill="#91854D" points="440.262,346.495 440.27,350.598 433.702,350.086 433.702,345.975 				"/>
			</g>
			<g>
			</g>
		</g>
		<path fill="#B69C57" d="M424.643,337.334c-0.109,0.24-0.277,0.371-0.406,0.713c-0.004,0.005-0.01,0.011-0.013,0.018
			c-0.033,0.072-0.062,0.188-0.085,0.331c-0.053,0.262-0.089,0.608-0.091,1.096c-0.018,0.488-0.022,1.061-0.018,1.667
			c-0.004,0.607,0,1.18,0.018,1.668c0.002,0.486,0.038,0.834,0.091,1.096c0.023,0.143,0.052,0.257,0.085,0.331
			c0.003,0.005,0.009,0.012,0.013,0.018c0.129,0.341,0.297,0.472,0.406,0.712c0.441,0.97,18.417,1.959,18.417,1.959v-11.566
			C443.06,335.376,425.083,336.365,424.643,337.334z"/>
		<path fill="#FCBF4C" d="M454.502,342.123c0,2.661-2.157,4.819-4.818,4.819h-7.126c-2.661,0-4.818-2.158-4.818-4.819v-1.929
			c0-2.661,2.157-4.818,4.818-4.818h7.126c2.661,0,4.818,2.157,4.818,4.818V342.123z"/>
		<g>
			<g>
				<defs>
					<rect id="SVGID_9_" x="309.908" y="169.113" width="256.769" height="256.769"/>
				</defs>
				<clipPath id="SVGID_10_">
					<use xlink:href="#SVGID_9_"  overflow="visible"/>
				</clipPath>
				<g clip-path="url(#SVGID_10_)">
					<defs>
						<rect id="SVGID_11_" x="309.908" y="169.113" width="256.769" height="256.769"/>
					</defs>
					<clipPath id="SVGID_12_">
						<use xlink:href="#SVGID_11_"  overflow="visible"/>
					</clipPath>
					<path clip-path="url(#SVGID_12_)" fill="#DAB361" d="M448.815,341.267c-0.148-0.51-0.232-1.048-0.232-1.606
						c0-2.493,1.591-4.61,3.811-5.408l-4.317-90.081l-4.331,90.35c1.745,0.987,2.925,2.858,2.925,5.005
						c0,0.607-0.095,1.192-0.27,1.74H448.815z"/>
					<path clip-path="url(#SVGID_12_)" fill="#DAB361" d="M447.279,339.876c-0.367,0.383-0.792,0.725-1.274,1.003
						c-2.16,1.247-4.789,0.928-6.589-0.596l-75.854,48.78l80.411-41.425c-0.019-2.005,1.012-3.962,2.871-5.035
						c0.526-0.304,1.081-0.514,1.643-0.637L447.279,339.876z"/>
					<path clip-path="url(#SVGID_12_)" fill="#DAB361" d="M448.346,339.876c0.367,0.383,0.792,0.725,1.274,1.003
						c2.16,1.247,4.789,0.928,6.589-0.596l75.854,48.78l-80.411-41.425c0.019-2.005-1.012-3.962-2.871-5.035
						c-0.526-0.304-1.081-0.514-1.643-0.637L448.346,339.876z"/>
				</g>
			</g>
		</g>
		<g>
			<g>
				<defs>
					<rect id="SVGID_13_" x="320.041" y="212.777" width="256.769" height="256.769"/>
				</defs>
				<clipPath id="SVGID_14_">
					<use xlink:href="#SVGID_13_"  overflow="visible"/>
				</clipPath>
				<g clip-path="url(#SVGID_14_)">
					<defs>
						<rect id="SVGID_15_" x="320.041" y="212.777" width="256.769" height="256.769"/>
					</defs>
					<clipPath id="SVGID_16_">
						<use xlink:href="#SVGID_15_"  overflow="visible"/>
					</clipPath>
					<path clip-path="url(#SVGID_16_)" fill="#B69C57" d="M453.802,340.949c0,2.771-2.247,5.019-5.019,5.019
						c-2.771,0-5.019-2.248-5.019-5.019c0-2.771,2.248-5.019,5.019-5.019C451.556,335.93,453.802,338.178,453.802,340.949"/>
					<path clip-path="url(#SVGID_16_)" fill="#FCBF4C" d="M453.903,340.853c0,2.415-2.229,5.092-4.644,5.092
						c-2.415,0-4.1-2.677-4.1-5.092c0-2.415,1.957-4.622,4.372-4.622C451.944,336.231,453.903,338.438,453.903,340.853"/>
				</g>
			</g>
		</g>
	</g>
	<polygon fill="#586C61" points="455.276,504.652 471.76,400.876 488.244,504.652 	"/>
	<polygon fill="#163A3E" points="488.115,503.844 455.276,504.652 467.894,425.213 	"/>
	<polygon fill="#163A3E" points="455.276,504.652 455.276,478.559 488.244,504.652 	"/>
	<rect x="517.885" y="495.489" fill="#91854D" width="5.929" height="18.326"/>
	<polygon fill="#586C61" points="503.789,504.652 520.272,400.876 536.756,504.652 	"/>
	<polygon fill="#163A3E" points="536.756,504.652 503.789,504.652 516.406,425.213 	"/>
	<g>
		<polygon fill="#FCBF4C" points="371.55,533.699 362.464,533.699 364.434,364.227 371.55,364.227 		"/>
		<polygon fill="#FCBF4C" points="363.863,533.699 373.417,533.699 371.446,364.227 363.863,364.227 		"/>
		<g id="XMLID_7_">
			<g>
				<polygon fill="#91854D" points="371.516,368.594 371.525,373.362 363.894,372.767 363.894,367.99 				"/>
			</g>
			<g>
			</g>
		</g>
		<path fill="#B69C57" d="M353.37,357.95c-0.126,0.279-0.321,0.431-0.472,0.829c-0.005,0.006-0.012,0.013-0.016,0.02
			c-0.039,0.084-0.071,0.219-0.099,0.384c-0.062,0.304-0.104,0.707-0.106,1.273c-0.021,0.568-0.026,1.233-0.021,1.937
			c-0.005,0.706,0,1.371,0.021,1.938c0.002,0.565,0.044,0.97,0.106,1.273c0.027,0.166,0.06,0.299,0.099,0.385
			c0.003,0.006,0.01,0.014,0.016,0.021c0.15,0.396,0.345,0.548,0.472,0.827c0.513,1.126,21.398,2.276,21.398,2.276v-13.438
			C374.768,355.675,353.882,356.824,353.37,357.95z"/>
		<path fill="#FCBF4C" d="M388.063,363.514c0,3.092-2.506,5.599-5.598,5.599h-8.28c-3.092,0-5.598-2.507-5.598-5.599v-2.241
			c0-3.092,2.506-5.598,5.598-5.598h8.28c3.092,0,5.598,2.506,5.598,5.598V363.514z"/>
		<g>
			<g>
				<defs>
					<rect id="SVGID_17_" x="220.059" y="162.496" width="298.334" height="298.334"/>
				</defs>
				<clipPath id="SVGID_18_">
					<use xlink:href="#SVGID_17_"  overflow="visible"/>
				</clipPath>
				<g clip-path="url(#SVGID_18_)">
					<defs>
						<rect id="SVGID_19_" x="220.059" y="162.496" width="298.334" height="298.334"/>
					</defs>
					<clipPath id="SVGID_20_">
						<use xlink:href="#SVGID_19_"  overflow="visible"/>
					</clipPath>
					<path clip-path="url(#SVGID_20_)" fill="#DAB361" d="M381.452,362.517c-0.172-0.592-0.269-1.218-0.269-1.866
						c0-2.896,1.848-5.357,4.427-6.284l-5.017-104.664l-5.031,104.976c2.027,1.146,3.398,3.32,3.398,5.815
						c0,0.705-0.11,1.385-0.313,2.022H381.452z"/>
					<path clip-path="url(#SVGID_20_)" fill="#DAB361" d="M379.667,360.902c-0.426,0.445-0.92,0.842-1.481,1.166
						c-2.509,1.449-5.564,1.078-7.656-0.692l-88.133,56.676l93.428-48.13c-0.021-2.33,1.175-4.604,3.336-5.851
						c0.611-0.353,1.255-0.597,1.908-0.74L379.667,360.902z"/>
					<path clip-path="url(#SVGID_20_)" fill="#DAB361" d="M380.908,360.902c0.426,0.445,0.92,0.842,1.48,1.166
						c2.509,1.449,5.564,1.078,7.656-0.692l88.133,56.676l-93.428-48.13c0.021-2.33-1.176-4.604-3.336-5.851
						c-0.611-0.353-1.255-0.597-1.908-0.74L380.908,360.902z"/>
				</g>
			</g>
		</g>
		<g>
			<g>
				<defs>
					<rect id="SVGID_21_" x="230.799" y="213.227" width="298.334" height="298.334"/>
				</defs>
				<clipPath id="SVGID_22_">
					<use xlink:href="#SVGID_21_"  overflow="visible"/>
				</clipPath>
				<g clip-path="url(#SVGID_22_)">
					<defs>
						<rect id="SVGID_23_" x="230.799" y="213.227" width="298.334" height="298.334"/>
					</defs>
					<clipPath id="SVGID_24_">
						<use xlink:href="#SVGID_23_"  overflow="visible"/>
					</clipPath>
					<path clip-path="url(#SVGID_24_)" fill="#B69C57" d="M386.214,362.147c0,3.219-2.611,5.831-5.832,5.831
						c-3.22,0-5.831-2.612-5.831-5.831c0-3.221,2.611-5.832,5.831-5.832C383.603,356.316,386.214,358.927,386.214,362.147"/>
					<path clip-path="url(#SVGID_24_)" fill="#FCBF4C" d="M386.33,362.036c0,2.806-2.59,5.916-5.396,5.916
						c-2.806,0-4.764-3.11-4.764-5.916s2.273-5.37,5.079-5.37C384.055,356.666,386.33,359.23,386.33,362.036"/>
				</g>
			</g>
		</g>
	</g>
	<polygon fill="#163A3E" points="503.789,504.652 503.789,478.559 536.756,504.652 	"/>
	<rect x="496.335" y="507.887" fill="#91854D" width="5.93" height="18.326"/>
	<polygon fill="#586C61" points="482.24,517.05 498.723,413.273 515.207,517.05 	"/>
	<polygon fill="#163A3E" points="515.207,517.05 482.24,517.05 494.858,437.611 	"/>
	<polygon fill="#163A3E" points="482.24,517.05 482.24,490.956 515.207,517.05 	"/>
	<rect x="551.855" y="507.887" fill="#91854D" width="5.929" height="18.326"/>
	<polygon fill="#163A3E" points="587.394,471.712 560.427,471.712 570.748,406.731 	"/>
	<polygon fill="#586C61" points="537.76,517.05 554.243,413.273 570.727,517.05 	"/>
	<polygon fill="#163A3E" points="570.727,517.05 537.76,517.05 550.377,437.611 	"/>
	<polygon fill="#163A3E" points="537.76,517.05 537.76,490.956 570.727,517.05 	"/>
	<line fill="none" x1="352.813" y1="363.821" x2="352.813" y2="532.029"/>
	<rect x="352.982" y="526.143" fill="#91854D" width="7.098" height="21.939"/>
	<polygon fill="#586C61" points="336.107,537.112 355.84,412.876 375.574,537.112 	"/>
	<polygon fill="#163A3E" points="375.42,536.145 336.107,537.112 351.212,442.012 	"/>
	<polygon fill="#163A3E" points="336.107,537.112 336.107,505.874 375.574,537.112 	"/>
	<line fill="none" x1="396.693" y1="413.832" x2="396.693" y2="582.04"/>
	<rect x="352.982" y="526.143" fill="#91854D" width="7.098" height="21.939"/>
	<polygon fill="#586C61" points="336.107,537.112 355.84,412.876 375.574,537.112 	"/>
	<polygon fill="#163A3E" points="375.42,536.145 336.107,537.112 351.212,442.012 	"/>
	<polygon fill="#163A3E" points="336.107,537.112 336.107,505.874 375.574,537.112 	"/>
	<line fill="none" x1="396.693" y1="413.832" x2="396.693" y2="582.04"/>
	<rect x="352.982" y="526.143" fill="#91854D" width="7.098" height="21.939"/>
	<polygon fill="#586C61" points="336.107,537.112 355.84,412.876 375.574,537.112 	"/>
	<polygon fill="#163A3E" points="375.42,536.145 336.107,537.112 351.212,442.012 	"/>
	<polygon fill="#163A3E" points="336.107,537.112 336.107,505.874 375.574,537.112 	"/>
	<path fill="#A8CD8D" d="M396.693,582.04"/>
	<path fill="#A8CD8D" d="M396.693,413.832"/>
	<line fill="none" x1="400.39" y1="364.599" x2="400.39" y2="532.807"/>
	<line fill="none" x1="400.39" y1="364.599" x2="400.39" y2="532.807"/>
	<line fill="none" x1="400.39" y1="364.599" x2="400.39" y2="532.807"/>
	<line fill="none" x1="415.729" y1="363.15" x2="415.729" y2="531.357"/>
	<rect x="411.059" y="526.143" fill="#91854D" width="7.098" height="21.939"/>
	<polygon fill="#586C61" points="394.184,537.112 413.917,412.876 433.65,537.112 	"/>
	<polygon fill="#163A3E" points="433.497,536.145 394.184,537.112 409.289,442.012 	"/>
	<polygon fill="#163A3E" points="394.184,537.112 394.184,505.874 433.65,537.112 	"/>
	<line fill="none" x1="455.093" y1="413.161" x2="455.093" y2="581.368"/>
	<rect x="411.059" y="526.143" fill="#91854D" width="7.098" height="21.939"/>
	<polygon fill="#586C61" points="394.184,537.112 413.917,412.876 433.65,537.112 	"/>
	<polygon fill="#163A3E" points="433.497,536.145 394.184,537.112 409.289,442.012 	"/>
	<polygon fill="#163A3E" points="394.184,537.112 394.184,505.874 433.65,537.112 	"/>
	<line fill="none" x1="455.093" y1="413.161" x2="455.093" y2="581.368"/>
	<rect x="411.059" y="526.143" fill="#91854D" width="7.098" height="21.939"/>
	<polygon fill="#586C61" points="394.184,537.112 413.917,412.876 433.65,537.112 	"/>
	<polygon fill="#163A3E" points="433.65,537.112 394.184,537.112 409.289,442.012 	"/>
	<polygon fill="#163A3E" points="394.184,537.112 394.184,505.874 433.65,537.112 	"/>
	<line fill="none" x1="455.093" y1="413.161" x2="455.093" y2="581.368"/>
	<line fill="none" x1="385.093" y1="378.663" x2="385.093" y2="546.871"/>
	<rect x="385.261" y="540.984" fill="#91854D" width="7.099" height="21.939"/>
	<polygon fill="#586C61" points="368.387,551.954 388.12,427.718 407.853,551.954 	"/>
	<polygon fill="#163A3E" points="407.699,550.986 368.387,551.954 383.492,456.854 	"/>
	<polygon fill="#163A3E" points="368.387,551.954 368.387,520.716 407.853,551.954 	"/>
	<line fill="none" x1="432.522" y1="428.674" x2="432.522" y2="596.882"/>
	<rect x="385.261" y="540.984" fill="#91854D" width="7.099" height="21.939"/>
	<polygon fill="#586C61" points="368.387,551.954 388.12,427.718 407.853,551.954 	"/>
	<polygon fill="#163A3E" points="407.699,550.986 368.387,551.954 383.492,456.854 	"/>
	<polygon fill="#163A3E" points="368.387,551.954 368.387,520.716 407.853,551.954 	"/>
	<line fill="none" x1="432.522" y1="428.674" x2="432.522" y2="596.882"/>
	<rect x="385.261" y="540.984" fill="#91854D" width="7.099" height="21.939"/>
	<polygon fill="#586C61" points="368.387,551.954 388.12,427.718 407.853,551.954 	"/>
	<polygon fill="#163A3E" points="407.853,551.954 368.387,551.954 383.492,456.854 	"/>
	<polygon fill="#163A3E" points="368.387,551.954 368.387,520.716 407.853,551.954 	"/>
	<line fill="none" x1="432.522" y1="428.674" x2="432.522" y2="596.882"/>
	<line fill="none" x1="436.219" y1="379.44" x2="436.219" y2="547.648"/>
	<line fill="none" x1="436.219" y1="379.44" x2="436.219" y2="547.648"/>
	<line fill="none" x1="436.219" y1="379.44" x2="436.219" y2="547.648"/>
	<line fill="none" x1="451.559" y1="377.992" x2="451.559" y2="546.2"/>
	<rect x="451.727" y="540.984" fill="#91854D" width="7.098" height="21.939"/>
	<polygon fill="#586C61" points="434.852,551.954 454.585,427.718 474.319,551.954 	"/>
	<polygon fill="#163A3E" points="474.166,550.986 434.852,551.954 449.958,456.854 	"/>
	<polygon fill="#163A3E" points="434.852,551.954 434.852,520.716 474.319,551.954 	"/>
	<rect x="451.727" y="540.984" fill="#91854D" width="7.098" height="21.939"/>
	<polygon fill="#586C61" points="434.852,551.954 454.585,427.718 474.319,551.954 	"/>
	<polygon fill="#163A3E" points="474.166,550.986 434.852,551.954 449.958,456.854 	"/>
	<polygon fill="#163A3E" points="434.852,551.954 434.852,520.716 474.319,551.954 	"/>
	<rect x="451.727" y="540.984" fill="#91854D" width="7.098" height="21.939"/>
	<polygon fill="#586C61" points="434.852,551.954 454.585,427.718 474.319,551.954 	"/>
	<polygon fill="#163A3E" points="474.319,551.954 434.852,551.954 449.958,456.854 	"/>
	<polygon fill="#163A3E" points="434.852,551.954 434.852,520.716 474.319,551.954 	"/>
</g>
<g id="Layer_18">
	<polygon fill="#586C61" points="1188.569,73.443 1180.083,89.941 1177.612,107.968 1172.148,118.068 1177.277,140.082 
		1176.979,166.564 1198.191,126.964 1199.229,95.942 1201.16,74.979 1192.989,63.823 	"/>
	<polygon fill="#586C61" points="1153.028,112.567 1160.979,124.784 1164.352,138.676 1169.428,146.134 1167.179,163.75 
		1169.528,184.425 1149.784,155.168 1146.494,131.003 1143.31,114.773 1148.806,105.4 	"/>
</g>
</svg>
