<svg xmlns="http://www.w3.org/2000/svg" viewBox="0 0 156.67 156.67"><defs><style>.cls-1,.cls-2{fill:none;stroke:#19616d;stroke-miterlimit:10;}.cls-1{stroke-width:6px;}.cls-2{stroke-width:7px;}</style></defs><title>Zasób 1</title><g id="Warstwa_2" data-name="Warstwa 2"><g id="Warstwa_1-2" data-name="Warstwa 1"><ellipse class="cls-1" cx="78.33" cy="78.33" rx="30" ry="75.33"/><path class="cls-1" d="M99.55,99.55C70.13,129,36.78,143.32,25.06,131.6S27.7,86.54,57.12,57.12s62.77-43.77,74.48-32.06S129,70.13,99.55,99.55Z"/><path class="cls-1" d="M99.55,57.12C129,86.54,143.32,119.89,131.6,131.6s-45.06-2.63-74.48-32S13.35,36.78,25.06,25.06,70.13,27.7,99.55,57.12Z"/><path class="cls-1" d="M78.33,48.33c41.61,0,75.34,13.43,75.34,30s-33.73,30-75.34,30S3,94.9,3,78.33,36.73,48.33,78.33,48.33Z"/><circle class="cls-2" cx="78.33" cy="78.33" r="9.41" transform="translate(-11.34 143.38) rotate(-80.96)"/></g></g></svg>