<svg xmlns="http://www.w3.org/2000/svg" viewBox="0 0 696 484"><defs><style>.cls-1{fill:#528256;}.cls-2{fill:#52a056;}.cls-3{fill:#75b831;}.cls-4{fill:#e0e5e7;}.cls-5{fill:#adb2b4;}</style></defs><title>Zasób 1</title><g id="Warstwa_2" data-name="Warstwa 2"><g id="Layer_1" data-name="Layer 1"><rect class="cls-1" y="139.5" width="696" height="344.21" rx="12"/><path class="cls-2" d="M677.8.76H612a314.55,314.55,0,0,1-.55,343.06H677.8a18.25,18.25,0,0,0,18.2-18.2V19A18.25,18.25,0,0,0,677.8.76Z"/><path class="cls-2" d="M84,.76H19A18.25,18.25,0,0,0,.76,19V325.62A18.25,18.25,0,0,0,19,343.82H84.52A314.55,314.55,0,0,1,84,.76Z"/><path class="cls-3" d="M612,.76H84a314.55,314.55,0,0,0,.55,343.06h527A314.55,314.55,0,0,0,612,.76Z"/><polygon class="cls-2" points="148.6 136.47 125.86 175.9 95.53 144.05 95.53 207.74 201.67 207.74 201.67 142.54 172.86 175.9 148.6 136.47"/><polygon class="cls-2" points="550.43 136.47 527.69 175.9 497.36 144.05 497.36 207.74 603.5 207.74 603.5 142.54 574.69 175.9 550.43 136.47"/><circle class="cls-2" cx="349.52" cy="178.17" r="106.9"/><rect class="cls-4" x="280.52" width="137.99" height="483.71"/><rect class="cls-5" x="280" y="344" width="139" height="140"/></g></g></svg>