<svg xmlns="http://www.w3.org/2000/svg" viewBox="0 0 308.75 188.71"><defs><style>.cls-1{opacity:0.8;}.cls-2{fill:#b56161;}.cls-3{fill:#7cb25f;}</style></defs><title>Zasób 1</title><g id="Warstwa_2" data-name="Warstwa 2"><g id="Layer_1" data-name="Layer 1"><g class="cls-1"><path class="cls-2" d="M100.32,0H276.27A10.69,10.69,0,0,1,287,10.69v105a10.69,10.69,0,0,1-10.69,10.69H100.32a10.7,10.7,0,0,1-10.7-10.7v-105A10.69,10.69,0,0,1,100.32,0Z"/><polygon class="cls-2" points="245.5 93.9 269.83 69.57 289.29 113.36 308.75 157.14 264.96 137.69 221.17 118.23 245.5 93.9"/></g><g class="cls-1"><path class="cls-3" d="M15.71,155.62c0,4.72,3.45,8.54,7.71,8.54H150.28c4.26,0,7.71-3.82,7.71-8.54V71.74c0-4.71-3.45-8.54-7.71-8.54H23.42c-4.26,0-7.71,3.83-7.71,8.54Z"/><polygon class="cls-3" points="45.6 138.2 28.06 118.77 14.03 153.74 0 188.71 31.57 173.17 63.14 157.63 45.6 138.2"/></g></g></g></svg>