<svg xmlns="http://www.w3.org/2000/svg" viewBox="0 0 119.94 62.92"><defs><style>.cls-1{fill:#3a3024;}.cls-2{fill:#e4e0b6;}.cls-3{fill:#e5e1b7;}.cls-4{fill:#ded7a6;}.cls-5{fill:#352b20;}</style></defs><title>Zasób 1</title><g id="Warstwa_2" data-name="Warstwa 2"><g id="Layer_1" data-name="Layer 1"><path class="cls-1" d="M14,36.06a8.36,8.36,0,0,0,7.68,2.8,8.37,8.37,0,0,0,6.27-5.25Z"/><path class="cls-1" d="M27.91,33.61A8.18,8.18,0,0,0,14,36.06Z"/><path class="cls-1" d="M37.35,31.94A8.18,8.18,0,0,0,51.3,29.48Z"/><path class="cls-1" d="M51.3,29.48a8.18,8.18,0,0,0-13.95,2.46Z"/><path class="cls-1" d="M28.67,51.3a15.93,15.93,0,0,1,6.74-2.73,15.74,15.74,0,0,1,7.27.26c1.55-1.18,2.38-2.57,2.15-3.89-.48-2.71-5.23-4.15-10.62-3.2s-9.37,3.92-8.89,6.64C25.55,49.7,26.81,50.72,28.67,51.3Z"/><path class="cls-2" d="M69.38,29.61a8.18,8.18,0,0,0,14,2.46Z"/><path class="cls-2" d="M83.33,32.07a8.18,8.18,0,0,0-14-2.46Z"/><path class="cls-2" d="M92.78,33.74a8.18,8.18,0,0,0,13.94,2.46Z"/><path class="cls-2" d="M106.72,36.2a8.17,8.17,0,0,0-13.94-2.46Z"/><path class="cls-2" d="M93.48,43.11a17.45,17.45,0,0,1-14-2.47c-1.85.58-3.11,1.6-3.34,2.93-.48,2.71,3.5,5.68,8.89,6.63S95.15,49.72,95.63,47C95.86,45.68,95,44.29,93.48,43.11Z"/><path class="cls-3" d="M37.89,62.67,27,.73c-.25,0-.5.06-.75.11A46.77,46.77,0,0,0,.09,15.11a41.76,41.76,0,0,0,.54,10C3.78,43,18.21,56.71,37.58,62.91Z"/><path class="cls-4" d="M59.34,14.78a41.24,41.24,0,0,0-2.93-9.6A46.73,46.73,0,0,0,27,.71c-.25,0-.5.1-.75.15L37.15,62.79l.39.13C53.61,50.46,62.49,32.66,59.34,14.78Z"/><path class="cls-1" d="M82.79,62.77,93.7.86c-.25,0-.49-.11-.74-.15A46.77,46.77,0,0,0,63.52,5.18a41.7,41.7,0,0,0-2.92,9.6c-3.15,17.87,5.72,35.68,21.79,48.13Z"/><path class="cls-5" d="M119.84,15.11A46.75,46.75,0,0,0,93.71.84c-.25,0-.5-.07-.75-.11L82.07,62.5l.39.38c19.32-6.22,33.7-19.91,36.85-37.75A41.75,41.75,0,0,0,119.84,15.11Z"/><path class="cls-1" d="M14,35.94a8.19,8.19,0,0,0,14-2.46Z"/><path class="cls-1" d="M27.91,33.48A8.17,8.17,0,0,0,14,35.94Z"/><path class="cls-1" d="M37.35,31.81A8.18,8.18,0,0,0,51.3,29.35Z"/><path class="cls-1" d="M51.3,29.35a8.18,8.18,0,0,0-13.95,2.46Z"/><path class="cls-1" d="M28.67,51.18a15.81,15.81,0,0,1,6.74-2.74,15.87,15.87,0,0,1,7.27.27c1.55-1.19,2.38-2.57,2.15-3.9-.48-2.71-5.23-4.14-10.62-3.19s-9.37,3.92-8.89,6.63C25.55,49.57,26.81,50.59,28.67,51.18Z"/><path class="cls-2" d="M69.38,29.49a8.18,8.18,0,0,0,14,2.45Z"/><path class="cls-2" d="M83.33,31.94a8.18,8.18,0,0,0-14-2.45Z"/><path class="cls-2" d="M92.78,33.61a8.18,8.18,0,0,0,13.94,2.46Z"/><path class="cls-2" d="M106.72,36.07a8.17,8.17,0,0,0-13.94-2.46Z"/><path class="cls-2" d="M93.48,43a17.35,17.35,0,0,1-14-2.47c-1.85.59-3.11,1.6-3.34,2.93-.48,2.71,3.5,5.68,8.89,6.63s10.14-.48,10.62-3.19C95.86,45.55,95,44.17,93.48,43Z"/></g></g></svg>