<svg xmlns="http://www.w3.org/2000/svg" viewBox="0 0 100.67 127.67"><defs><style>.cls-1{fill:#4fa7af;}.cls-2{fill:#1a616d;stroke:#4fa7af;stroke-miterlimit:10;stroke-width:7px;}</style></defs><title>Zasób 3</title><g id="Warstwa_2" data-name="Warstwa 2"><g id="Layer_3" data-name="Layer 3"><path class="cls-1" d="M100.67,77.33A50.34,50.34,0,1,1,50.33,27,50.34,50.34,0,0,1,100.67,77.33Z"/><path class="cls-2" d="M6.33,77.33h0a44,44,0,0,0,88,0h-88Z"/><rect class="cls-1" x="34.68" y="0.67" width="31.31" height="61.33" rx="12"/><path class="cls-1" d="M73,6.67a6.66,6.66,0,0,1-6.66,6.66h-32a6.67,6.67,0,0,1-6.67-6.66h0A6.67,6.67,0,0,1,34.34,0h32A6.66,6.66,0,0,1,73,6.67Z"/></g></g></svg>